  0
SECTION
  2
BLOCKS
  0
ENDSEC
  0
SECTION
  2
ENTITIES
  0
LINE
  8
0
 10
-117.05
 11
-117.05
 20
-117.05
 21
-102.05
  0
LINE
  8
0
 10
-117.05
 11
-99.05
 20
-102.05
 21
-102.05
  0
LINE
  8
0
 10
-99.05
 11
-99.05
 20
-102.05
 21
-117.05
  0
LINE
  8
0
 10
-99.05
 11
-117.05
 20
-117.05
 21
-117.05
  0
LINE
  8
0
 10
-117.05
 11
-117.05
 20
-98.792
 21
-83.792
  0
LINE
  8
0
 10
-117.05
 11
-99.05
 20
-83.792
 21
-83.792
  0
LINE
  8
0
 10
-99.05
 11
-99.05
 20
-83.792
 21
-98.792
  0
LINE
  8
0
 10
-99.05
 11
-117.05
 20
-98.792
 21
-98.792
  0
LINE
  8
0
 10
-117.05
 11
-117.05
 20
-80.533
 21
-65.533
  0
LINE
  8
0
 10
-117.05
 11
-99.05
 20
-65.533
 21
-65.533
  0
LINE
  8
0
 10
-99.05
 11
-99.05
 20
-65.533
 21
-80.533
  0
LINE
  8
0
 10
-99.05
 11
-117.05
 20
-80.533
 21
-80.533
  0
LINE
  8
0
 10
-117.05
 11
-117.05
 20
-62.275
 21
-47.275
  0
LINE
  8
0
 10
-117.05
 11
-99.05
 20
-47.275
 21
-47.275
  0
LINE
  8
0
 10
-99.05
 11
-99.05
 20
-47.275
 21
-62.275
  0
LINE
  8
0
 10
-99.05
 11
-117.05
 20
-62.275
 21
-62.275
  0
LINE
  8
0
 10
-117.05
 11
-117.05
 20
-44.017
 21
-29.017
  0
LINE
  8
0
 10
-117.05
 11
-99.05
 20
-29.017
 21
-29.017
  0
LINE
  8
0
 10
-99.05
 11
-99.05
 20
-29.017
 21
-44.017
  0
LINE
  8
0
 10
-99.05
 11
-117.05
 20
-44.017
 21
-44.017
  0
LINE
  8
0
 10
-117.05
 11
-117.05
 20
-25.758
 21
-10.758
  0
LINE
  8
0
 10
-117.05
 11
-99.05
 20
-10.758
 21
-10.758
  0
LINE
  8
0
 10
-99.05
 11
-99.05
 20
-10.758
 21
-25.758
  0
LINE
  8
0
 10
-99.05
 11
-117.05
 20
-25.758
 21
-25.758
  0
LINE
  8
0
 10
-117.05
 11
-117.05
 20
-7.5
 21
7.5
  0
LINE
  8
0
 10
-117.05
 11
-99.05
 20
7.5
 21
7.5
  0
LINE
  8
0
 10
-99.05
 11
-99.05
 20
7.5
 21
-7.5
  0
LINE
  8
0
 10
-99.05
 11
-117.05
 20
-7.5
 21
-7.5
  0
LINE
  8
0
 10
-117.05
 11
-117.05
 20
10.758
 21
25.758
  0
LINE
  8
0
 10
-117.05
 11
-99.05
 20
25.758
 21
25.758
  0
LINE
  8
0
 10
-99.05
 11
-99.05
 20
25.758
 21
10.758
  0
LINE
  8
0
 10
-99.05
 11
-117.05
 20
10.758
 21
10.758
  0
LINE
  8
0
 10
-117.05
 11
-117.05
 20
29.017
 21
44.017
  0
LINE
  8
0
 10
-117.05
 11
-99.05
 20
44.017
 21
44.017
  0
LINE
  8
0
 10
-99.05
 11
-99.05
 20
44.017
 21
29.017
  0
LINE
  8
0
 10
-99.05
 11
-117.05
 20
29.017
 21
29.017
  0
LINE
  8
0
 10
-117.05
 11
-117.05
 20
47.275
 21
62.275
  0
LINE
  8
0
 10
-117.05
 11
-99.05
 20
62.275
 21
62.275
  0
LINE
  8
0
 10
-99.05
 11
-99.05
 20
62.275
 21
47.275
  0
LINE
  8
0
 10
-99.05
 11
-117.05
 20
47.275
 21
47.275
  0
LINE
  8
0
 10
-117.05
 11
-117.05
 20
65.533
 21
80.533
  0
LINE
  8
0
 10
-117.05
 11
-99.05
 20
80.533
 21
80.533
  0
LINE
  8
0
 10
-99.05
 11
-99.05
 20
80.533
 21
65.533
  0
LINE
  8
0
 10
-99.05
 11
-117.05
 20
65.533
 21
65.533
  0
LINE
  8
0
 10
-117.05
 11
-117.05
 20
83.792
 21
98.792
  0
LINE
  8
0
 10
-117.05
 11
-99.05
 20
98.792
 21
98.792
  0
LINE
  8
0
 10
-99.05
 11
-99.05
 20
98.792
 21
83.792
  0
LINE
  8
0
 10
-99.05
 11
-117.05
 20
83.792
 21
83.792
  0
LINE
  8
0
 10
-117.05
 11
-117.05
 20
102.05
 21
117.05
  0
LINE
  8
0
 10
-117.05
 11
-99.05
 20
117.05
 21
117.05
  0
LINE
  8
0
 10
-99.05
 11
-99.05
 20
117.05
 21
102.05
  0
LINE
  8
0
 10
-99.05
 11
-117.05
 20
102.05
 21
102.05
  0
LINE
  8
0
 10
-86.179
 11
-86.179
 20
-117.05
 21
-102.05
  0
LINE
  8
0
 10
-86.179
 11
-68.179
 20
-102.05
 21
-102.05
  0
LINE
  8
0
 10
-68.179
 11
-68.179
 20
-102.05
 21
-117.05
  0
LINE
  8
0
 10
-68.179
 11
-86.179
 20
-117.05
 21
-117.05
  0
LINE
  8
0
 10
-86.179
 11
-86.179
 20
-98.792
 21
-83.792
  0
LINE
  8
0
 10
-86.179
 11
-68.179
 20
-83.792
 21
-83.792
  0
LINE
  8
0
 10
-68.179
 11
-68.179
 20
-83.792
 21
-98.792
  0
LINE
  8
0
 10
-68.179
 11
-86.179
 20
-98.792
 21
-98.792
  0
LINE
  8
0
 10
-86.179
 11
-86.179
 20
-80.533
 21
-65.533
  0
LINE
  8
0
 10
-86.179
 11
-68.179
 20
-65.533
 21
-65.533
  0
LINE
  8
0
 10
-68.179
 11
-68.179
 20
-65.533
 21
-80.533
  0
LINE
  8
0
 10
-68.179
 11
-86.179
 20
-80.533
 21
-80.533
  0
LINE
  8
0
 10
-86.179
 11
-86.179
 20
-62.275
 21
-47.275
  0
LINE
  8
0
 10
-86.179
 11
-68.179
 20
-47.275
 21
-47.275
  0
LINE
  8
0
 10
-68.179
 11
-68.179
 20
-47.275
 21
-62.275
  0
LINE
  8
0
 10
-68.179
 11
-86.179
 20
-62.275
 21
-62.275
  0
LINE
  8
0
 10
-86.179
 11
-86.179
 20
-44.017
 21
-29.017
  0
LINE
  8
0
 10
-86.179
 11
-68.179
 20
-29.017
 21
-29.017
  0
LINE
  8
0
 10
-68.179
 11
-68.179
 20
-29.017
 21
-44.017
  0
LINE
  8
0
 10
-68.179
 11
-86.179
 20
-44.017
 21
-44.017
  0
LINE
  8
0
 10
-86.179
 11
-86.179
 20
-25.758
 21
-10.758
  0
LINE
  8
0
 10
-86.179
 11
-68.179
 20
-10.758
 21
-10.758
  0
LINE
  8
0
 10
-68.179
 11
-68.179
 20
-10.758
 21
-25.758
  0
LINE
  8
0
 10
-68.179
 11
-86.179
 20
-25.758
 21
-25.758
  0
LINE
  8
0
 10
-86.179
 11
-86.179
 20
-7.5
 21
7.5
  0
LINE
  8
0
 10
-86.179
 11
-68.179
 20
7.5
 21
7.5
  0
LINE
  8
0
 10
-68.179
 11
-68.179
 20
7.5
 21
-7.5
  0
LINE
  8
0
 10
-68.179
 11
-86.179
 20
-7.5
 21
-7.5
  0
LINE
  8
0
 10
-86.179
 11
-86.179
 20
10.758
 21
25.758
  0
LINE
  8
0
 10
-86.179
 11
-68.179
 20
25.758
 21
25.758
  0
LINE
  8
0
 10
-68.179
 11
-68.179
 20
25.758
 21
10.758
  0
LINE
  8
0
 10
-68.179
 11
-86.179
 20
10.758
 21
10.758
  0
LINE
  8
0
 10
-146.05
 11
-146.05
 20
-146.05
 21
146.05
  0
LINE
  8
0
 10
-146.05
 11
146.05
 20
146.05
 21
146.05
  0
LINE
  8
0
 10
146.05
 11
146.05
 20
146.05
 21
-146.05
  0
LINE
  8
0
 10
146.05
 11
-146.05
 20
-146.05
 21
-146.05
  0
LINE
  8
0
 10
-86.179
 11
-86.179
 20
29.017
 21
44.017
  0
LINE
  8
0
 10
-86.179
 11
-68.179
 20
44.017
 21
44.017
  0
LINE
  8
0
 10
-68.179
 11
-68.179
 20
44.017
 21
29.017
  0
LINE
  8
0
 10
-68.179
 11
-86.179
 20
29.017
 21
29.017
  0
LINE
  8
0
 10
-86.179
 11
-86.179
 20
47.275
 21
62.275
  0
LINE
  8
0
 10
-86.179
 11
-68.179
 20
62.275
 21
62.275
  0
LINE
  8
0
 10
-68.179
 11
-68.179
 20
62.275
 21
47.275
  0
LINE
  8
0
 10
-68.179
 11
-86.179
 20
47.275
 21
47.275
  0
LINE
  8
0
 10
-86.179
 11
-86.179
 20
65.533
 21
80.533
  0
LINE
  8
0
 10
-86.179
 11
-68.179
 20
80.533
 21
80.533
  0
LINE
  8
0
 10
-68.179
 11
-68.179
 20
80.533
 21
65.533
  0
LINE
  8
0
 10
-68.179
 11
-86.179
 20
65.533
 21
65.533
  0
LINE
  8
0
 10
-86.179
 11
-86.179
 20
83.792
 21
98.792
  0
LINE
  8
0
 10
-86.179
 11
-68.179
 20
98.792
 21
98.792
  0
LINE
  8
0
 10
-68.179
 11
-68.179
 20
98.792
 21
83.792
  0
LINE
  8
0
 10
-68.179
 11
-86.179
 20
83.792
 21
83.792
  0
LINE
  8
0
 10
-86.179
 11
-86.179
 20
102.05
 21
117.05
  0
LINE
  8
0
 10
-86.179
 11
-68.179
 20
117.05
 21
117.05
  0
LINE
  8
0
 10
-68.179
 11
-68.179
 20
117.05
 21
102.05
  0
LINE
  8
0
 10
-68.179
 11
-86.179
 20
102.05
 21
102.05
  0
LINE
  8
0
 10
-55.307
 11
-55.307
 20
-117.05
 21
-102.05
  0
LINE
  8
0
 10
-55.307
 11
-37.307
 20
-102.05
 21
-102.05
  0
LINE
  8
0
 10
-37.307
 11
-37.307
 20
-102.05
 21
-117.05
  0
LINE
  8
0
 10
-37.307
 11
-55.307
 20
-117.05
 21
-117.05
  0
LINE
  8
0
 10
-55.307
 11
-55.307
 20
-98.792
 21
-83.792
  0
LINE
  8
0
 10
-55.307
 11
-37.307
 20
-83.792
 21
-83.792
  0
LINE
  8
0
 10
-37.307
 11
-37.307
 20
-83.792
 21
-98.792
  0
LINE
  8
0
 10
-37.307
 11
-55.307
 20
-98.792
 21
-98.792
  0
LINE
  8
0
 10
-55.307
 11
-55.307
 20
-80.533
 21
-65.533
  0
LINE
  8
0
 10
-55.307
 11
-37.307
 20
-65.533
 21
-65.533
  0
LINE
  8
0
 10
-37.307
 11
-37.307
 20
-65.533
 21
-80.533
  0
LINE
  8
0
 10
-37.307
 11
-55.307
 20
-80.533
 21
-80.533
  0
LINE
  8
0
 10
-55.307
 11
-55.307
 20
-62.275
 21
-47.275
  0
LINE
  8
0
 10
-55.307
 11
-37.307
 20
-47.275
 21
-47.275
  0
LINE
  8
0
 10
-37.307
 11
-37.307
 20
-47.275
 21
-62.275
  0
LINE
  8
0
 10
-37.307
 11
-55.307
 20
-62.275
 21
-62.275
  0
LINE
  8
0
 10
-55.307
 11
-55.307
 20
-44.017
 21
-29.017
  0
LINE
  8
0
 10
-55.307
 11
-37.307
 20
-29.017
 21
-29.017
  0
LINE
  8
0
 10
-37.307
 11
-37.307
 20
-29.017
 21
-44.017
  0
LINE
  8
0
 10
-37.307
 11
-55.307
 20
-44.017
 21
-44.017
  0
LINE
  8
0
 10
-55.307
 11
-55.307
 20
-25.758
 21
-10.758
  0
LINE
  8
0
 10
-55.307
 11
-37.307
 20
-10.758
 21
-10.758
  0
LINE
  8
0
 10
-37.307
 11
-37.307
 20
-10.758
 21
-25.758
  0
LINE
  8
0
 10
-37.307
 11
-55.307
 20
-25.758
 21
-25.758
  0
LINE
  8
0
 10
-55.307
 11
-55.307
 20
-7.5
 21
7.5
  0
LINE
  8
0
 10
-55.307
 11
-37.307
 20
7.5
 21
7.5
  0
LINE
  8
0
 10
-37.307
 11
-37.307
 20
7.5
 21
-7.5
  0
LINE
  8
0
 10
-37.307
 11
-55.307
 20
-7.5
 21
-7.5
  0
LINE
  8
0
 10
-55.307
 11
-55.307
 20
10.758
 21
25.758
  0
LINE
  8
0
 10
-55.307
 11
-37.307
 20
25.758
 21
25.758
  0
LINE
  8
0
 10
-37.307
 11
-37.307
 20
25.758
 21
10.758
  0
LINE
  8
0
 10
-37.307
 11
-55.307
 20
10.758
 21
10.758
  0
LINE
  8
0
 10
-55.307
 11
-55.307
 20
29.017
 21
44.017
  0
LINE
  8
0
 10
-55.307
 11
-37.307
 20
44.017
 21
44.017
  0
LINE
  8
0
 10
-37.307
 11
-37.307
 20
44.017
 21
29.017
  0
LINE
  8
0
 10
-37.307
 11
-55.307
 20
29.017
 21
29.017
  0
LINE
  8
0
 10
-55.307
 11
-55.307
 20
47.275
 21
62.275
  0
LINE
  8
0
 10
-55.307
 11
-37.307
 20
62.275
 21
62.275
  0
LINE
  8
0
 10
-37.307
 11
-37.307
 20
62.275
 21
47.275
  0
LINE
  8
0
 10
-37.307
 11
-55.307
 20
47.275
 21
47.275
  0
LINE
  8
0
 10
-55.307
 11
-55.307
 20
65.533
 21
80.533
  0
LINE
  8
0
 10
-55.307
 11
-37.307
 20
80.533
 21
80.533
  0
LINE
  8
0
 10
-37.307
 11
-37.307
 20
80.533
 21
65.533
  0
LINE
  8
0
 10
-37.307
 11
-55.307
 20
65.533
 21
65.533
  0
LINE
  8
0
 10
-55.307
 11
-55.307
 20
83.792
 21
98.792
  0
LINE
  8
0
 10
-55.307
 11
-37.307
 20
98.792
 21
98.792
  0
LINE
  8
0
 10
-37.307
 11
-37.307
 20
98.792
 21
83.792
  0
LINE
  8
0
 10
-37.307
 11
-55.307
 20
83.792
 21
83.792
  0
LINE
  8
0
 10
-55.307
 11
-55.307
 20
102.05
 21
117.05
  0
LINE
  8
0
 10
-55.307
 11
-37.307
 20
117.05
 21
117.05
  0
LINE
  8
0
 10
-37.307
 11
-37.307
 20
117.05
 21
102.05
  0
LINE
  8
0
 10
-37.307
 11
-55.307
 20
102.05
 21
102.05
  0
LINE
  8
0
 10
-24.436
 11
-24.436
 20
-117.05
 21
-102.05
  0
LINE
  8
0
 10
-24.436
 11
-6.436
 20
-102.05
 21
-102.05
  0
LINE
  8
0
 10
-6.436
 11
-6.436
 20
-102.05
 21
-117.05
  0
LINE
  8
0
 10
-6.436
 11
-24.436
 20
-117.05
 21
-117.05
  0
LINE
  8
0
 10
-24.436
 11
-24.436
 20
-98.792
 21
-83.792
  0
LINE
  8
0
 10
-24.436
 11
-6.436
 20
-83.792
 21
-83.792
  0
LINE
  8
0
 10
-6.436
 11
-6.436
 20
-83.792
 21
-98.792
  0
LINE
  8
0
 10
-6.436
 11
-24.436
 20
-98.792
 21
-98.792
  0
LINE
  8
0
 10
-24.436
 11
-24.436
 20
-80.533
 21
-65.533
  0
LINE
  8
0
 10
-24.436
 11
-6.436
 20
-65.533
 21
-65.533
  0
LINE
  8
0
 10
-6.436
 11
-6.436
 20
-65.533
 21
-80.533
  0
LINE
  8
0
 10
-6.436
 11
-24.436
 20
-80.533
 21
-80.533
  0
LINE
  8
0
 10
-24.436
 11
-24.436
 20
-62.275
 21
-47.275
  0
LINE
  8
0
 10
-24.436
 11
-6.436
 20
-47.275
 21
-47.275
  0
LINE
  8
0
 10
-6.436
 11
-6.436
 20
-47.275
 21
-62.275
  0
LINE
  8
0
 10
-6.436
 11
-24.436
 20
-62.275
 21
-62.275
  0
LINE
  8
0
 10
-24.436
 11
-24.436
 20
-44.017
 21
-29.017
  0
LINE
  8
0
 10
-24.436
 11
-6.436
 20
-29.017
 21
-29.017
  0
LINE
  8
0
 10
-6.436
 11
-6.436
 20
-29.017
 21
-44.017
  0
LINE
  8
0
 10
-6.436
 11
-24.436
 20
-44.017
 21
-44.017
  0
LINE
  8
0
 10
-24.436
 11
-24.436
 20
-25.758
 21
-10.758
  0
LINE
  8
0
 10
-24.436
 11
-6.436
 20
-10.758
 21
-10.758
  0
LINE
  8
0
 10
-6.436
 11
-6.436
 20
-10.758
 21
-25.758
  0
LINE
  8
0
 10
-6.436
 11
-24.436
 20
-25.758
 21
-25.758
  0
LINE
  8
0
 10
-24.436
 11
-24.436
 20
-7.5
 21
7.5
  0
LINE
  8
0
 10
-24.436
 11
-6.436
 20
7.5
 21
7.5
  0
LINE
  8
0
 10
-6.436
 11
-6.436
 20
7.5
 21
-7.5
  0
LINE
  8
0
 10
-6.436
 11
-24.436
 20
-7.5
 21
-7.5
  0
LINE
  8
0
 10
-24.436
 11
-24.436
 20
10.758
 21
25.758
  0
LINE
  8
0
 10
-24.436
 11
-6.436
 20
25.758
 21
25.758
  0
LINE
  8
0
 10
-6.436
 11
-6.436
 20
25.758
 21
10.758
  0
LINE
  8
0
 10
-6.436
 11
-24.436
 20
10.758
 21
10.758
  0
LINE
  8
0
 10
-24.436
 11
-24.436
 20
29.017
 21
44.017
  0
LINE
  8
0
 10
-24.436
 11
-6.436
 20
44.017
 21
44.017
  0
LINE
  8
0
 10
-6.436
 11
-6.436
 20
44.017
 21
29.017
  0
LINE
  8
0
 10
-6.436
 11
-24.436
 20
29.017
 21
29.017
  0
LINE
  8
0
 10
-24.436
 11
-24.436
 20
47.275
 21
62.275
  0
LINE
  8
0
 10
-24.436
 11
-6.436
 20
62.275
 21
62.275
  0
LINE
  8
0
 10
-6.436
 11
-6.436
 20
62.275
 21
47.275
  0
LINE
  8
0
 10
-6.436
 11
-24.436
 20
47.275
 21
47.275
  0
LINE
  8
0
 10
-24.436
 11
-24.436
 20
65.533
 21
80.533
  0
LINE
  8
0
 10
-24.436
 11
-6.436
 20
80.533
 21
80.533
  0
LINE
  8
0
 10
-6.436
 11
-6.436
 20
80.533
 21
65.533
  0
LINE
  8
0
 10
-6.436
 11
-24.436
 20
65.533
 21
65.533
  0
LINE
  8
0
 10
-24.436
 11
-24.436
 20
83.792
 21
98.792
  0
LINE
  8
0
 10
-24.436
 11
-6.436
 20
98.792
 21
98.792
  0
LINE
  8
0
 10
-6.436
 11
-6.436
 20
98.792
 21
83.792
  0
LINE
  8
0
 10
-6.436
 11
-24.436
 20
83.792
 21
83.792
  0
LINE
  8
0
 10
-24.436
 11
-24.436
 20
102.05
 21
117.05
  0
LINE
  8
0
 10
-24.436
 11
-6.436
 20
117.05
 21
117.05
  0
LINE
  8
0
 10
-6.436
 11
-6.436
 20
117.05
 21
102.05
  0
LINE
  8
0
 10
-6.436
 11
-24.436
 20
102.05
 21
102.05
  0
LINE
  8
0
 10
6.436
 11
6.436
 20
-117.05
 21
-102.05
  0
LINE
  8
0
 10
6.436
 11
24.436
 20
-102.05
 21
-102.05
  0
LINE
  8
0
 10
24.436
 11
24.436
 20
-102.05
 21
-117.05
  0
LINE
  8
0
 10
24.436
 11
6.436
 20
-117.05
 21
-117.05
  0
LINE
  8
0
 10
6.436
 11
6.436
 20
-98.792
 21
-83.792
  0
LINE
  8
0
 10
6.436
 11
24.436
 20
-83.792
 21
-83.792
  0
LINE
  8
0
 10
24.436
 11
24.436
 20
-83.792
 21
-98.792
  0
LINE
  8
0
 10
24.436
 11
6.436
 20
-98.792
 21
-98.792
  0
LINE
  8
0
 10
6.436
 11
6.436
 20
-80.533
 21
-65.533
  0
LINE
  8
0
 10
6.436
 11
24.436
 20
-65.533
 21
-65.533
  0
LINE
  8
0
 10
24.436
 11
24.436
 20
-65.533
 21
-80.533
  0
LINE
  8
0
 10
24.436
 11
6.436
 20
-80.533
 21
-80.533
  0
LINE
  8
0
 10
6.436
 11
6.436
 20
-62.275
 21
-47.275
  0
LINE
  8
0
 10
6.436
 11
24.436
 20
-47.275
 21
-47.275
  0
LINE
  8
0
 10
24.436
 11
24.436
 20
-47.275
 21
-62.275
  0
LINE
  8
0
 10
24.436
 11
6.436
 20
-62.275
 21
-62.275
  0
LINE
  8
0
 10
6.436
 11
6.436
 20
-44.017
 21
-29.017
  0
LINE
  8
0
 10
6.436
 11
24.436
 20
-29.017
 21
-29.017
  0
LINE
  8
0
 10
24.436
 11
24.436
 20
-29.017
 21
-44.017
  0
LINE
  8
0
 10
24.436
 11
6.436
 20
-44.017
 21
-44.017
  0
LINE
  8
0
 10
6.436
 11
6.436
 20
-25.758
 21
-10.758
  0
LINE
  8
0
 10
6.436
 11
24.436
 20
-10.758
 21
-10.758
  0
LINE
  8
0
 10
24.436
 11
24.436
 20
-10.758
 21
-25.758
  0
LINE
  8
0
 10
24.436
 11
6.436
 20
-25.758
 21
-25.758
  0
LINE
  8
0
 10
6.436
 11
6.436
 20
-7.5
 21
7.5
  0
LINE
  8
0
 10
6.436
 11
24.436
 20
7.5
 21
7.5
  0
LINE
  8
0
 10
24.436
 11
24.436
 20
7.5
 21
-7.5
  0
LINE
  8
0
 10
24.436
 11
6.436
 20
-7.5
 21
-7.5
  0
LINE
  8
0
 10
6.436
 11
6.436
 20
10.758
 21
25.758
  0
LINE
  8
0
 10
6.436
 11
24.436
 20
25.758
 21
25.758
  0
LINE
  8
0
 10
24.436
 11
24.436
 20
25.758
 21
10.758
  0
LINE
  8
0
 10
24.436
 11
6.436
 20
10.758
 21
10.758
  0
LINE
  8
0
 10
6.436
 11
6.436
 20
29.017
 21
44.017
  0
LINE
  8
0
 10
6.436
 11
24.436
 20
44.017
 21
44.017
  0
LINE
  8
0
 10
24.436
 11
24.436
 20
44.017
 21
29.017
  0
LINE
  8
0
 10
24.436
 11
6.436
 20
29.017
 21
29.017
  0
LINE
  8
0
 10
6.436
 11
6.436
 20
47.275
 21
62.275
  0
LINE
  8
0
 10
6.436
 11
24.436
 20
62.275
 21
62.275
  0
LINE
  8
0
 10
24.436
 11
24.436
 20
62.275
 21
47.275
  0
LINE
  8
0
 10
24.436
 11
6.436
 20
47.275
 21
47.275
  0
LINE
  8
0
 10
6.436
 11
6.436
 20
65.533
 21
80.533
  0
LINE
  8
0
 10
6.436
 11
24.436
 20
80.533
 21
80.533
  0
LINE
  8
0
 10
24.436
 11
24.436
 20
80.533
 21
65.533
  0
LINE
  8
0
 10
24.436
 11
6.436
 20
65.533
 21
65.533
  0
LINE
  8
0
 10
6.436
 11
6.436
 20
83.792
 21
98.792
  0
LINE
  8
0
 10
6.436
 11
24.436
 20
98.792
 21
98.792
  0
LINE
  8
0
 10
24.436
 11
24.436
 20
98.792
 21
83.792
  0
LINE
  8
0
 10
24.436
 11
6.436
 20
83.792
 21
83.792
  0
LINE
  8
0
 10
6.436
 11
6.436
 20
102.05
 21
117.05
  0
LINE
  8
0
 10
6.436
 11
24.436
 20
117.05
 21
117.05
  0
LINE
  8
0
 10
24.436
 11
24.436
 20
117.05
 21
102.05
  0
LINE
  8
0
 10
24.436
 11
6.436
 20
102.05
 21
102.05
  0
LINE
  8
0
 10
37.307
 11
37.307
 20
-117.05
 21
-102.05
  0
LINE
  8
0
 10
37.307
 11
55.307
 20
-102.05
 21
-102.05
  0
LINE
  8
0
 10
55.307
 11
55.307
 20
-102.05
 21
-117.05
  0
LINE
  8
0
 10
55.307
 11
37.307
 20
-117.05
 21
-117.05
  0
LINE
  8
0
 10
37.307
 11
37.307
 20
-98.792
 21
-83.792
  0
LINE
  8
0
 10
37.307
 11
55.307
 20
-83.792
 21
-83.792
  0
LINE
  8
0
 10
55.307
 11
55.307
 20
-83.792
 21
-98.792
  0
LINE
  8
0
 10
55.307
 11
37.307
 20
-98.792
 21
-98.792
  0
LINE
  8
0
 10
37.307
 11
37.307
 20
-80.533
 21
-65.533
  0
LINE
  8
0
 10
37.307
 11
55.307
 20
-65.533
 21
-65.533
  0
LINE
  8
0
 10
55.307
 11
55.307
 20
-65.533
 21
-80.533
  0
LINE
  8
0
 10
55.307
 11
37.307
 20
-80.533
 21
-80.533
  0
LINE
  8
0
 10
37.307
 11
37.307
 20
-62.275
 21
-47.275
  0
LINE
  8
0
 10
37.307
 11
55.307
 20
-47.275
 21
-47.275
  0
LINE
  8
0
 10
55.307
 11
55.307
 20
-47.275
 21
-62.275
  0
LINE
  8
0
 10
55.307
 11
37.307
 20
-62.275
 21
-62.275
  0
LINE
  8
0
 10
37.307
 11
37.307
 20
-44.017
 21
-29.017
  0
LINE
  8
0
 10
37.307
 11
55.307
 20
-29.017
 21
-29.017
  0
LINE
  8
0
 10
55.307
 11
55.307
 20
-29.017
 21
-44.017
  0
LINE
  8
0
 10
55.307
 11
37.307
 20
-44.017
 21
-44.017
  0
LINE
  8
0
 10
37.307
 11
37.307
 20
-25.758
 21
-10.758
  0
LINE
  8
0
 10
37.307
 11
55.307
 20
-10.758
 21
-10.758
  0
LINE
  8
0
 10
55.307
 11
55.307
 20
-10.758
 21
-25.758
  0
LINE
  8
0
 10
55.307
 11
37.307
 20
-25.758
 21
-25.758
  0
LINE
  8
0
 10
37.307
 11
37.307
 20
-7.5
 21
7.5
  0
LINE
  8
0
 10
37.307
 11
55.307
 20
7.5
 21
7.5
  0
LINE
  8
0
 10
55.307
 11
55.307
 20
7.5
 21
-7.5
  0
LINE
  8
0
 10
55.307
 11
37.307
 20
-7.5
 21
-7.5
  0
LINE
  8
0
 10
37.307
 11
37.307
 20
10.758
 21
25.758
  0
LINE
  8
0
 10
37.307
 11
55.307
 20
25.758
 21
25.758
  0
LINE
  8
0
 10
55.307
 11
55.307
 20
25.758
 21
10.758
  0
LINE
  8
0
 10
55.307
 11
37.307
 20
10.758
 21
10.758
  0
LINE
  8
0
 10
37.307
 11
37.307
 20
29.017
 21
44.017
  0
LINE
  8
0
 10
37.307
 11
55.307
 20
44.017
 21
44.017
  0
LINE
  8
0
 10
55.307
 11
55.307
 20
44.017
 21
29.017
  0
LINE
  8
0
 10
55.307
 11
37.307
 20
29.017
 21
29.017
  0
LINE
  8
0
 10
37.307
 11
37.307
 20
47.275
 21
62.275
  0
LINE
  8
0
 10
37.307
 11
55.307
 20
62.275
 21
62.275
  0
LINE
  8
0
 10
55.307
 11
55.307
 20
62.275
 21
47.275
  0
LINE
  8
0
 10
55.307
 11
37.307
 20
47.275
 21
47.275
  0
LINE
  8
0
 10
37.307
 11
37.307
 20
65.533
 21
80.533
  0
LINE
  8
0
 10
37.307
 11
55.307
 20
80.533
 21
80.533
  0
LINE
  8
0
 10
55.307
 11
55.307
 20
80.533
 21
65.533
  0
LINE
  8
0
 10
55.307
 11
37.307
 20
65.533
 21
65.533
  0
LINE
  8
0
 10
37.307
 11
37.307
 20
83.792
 21
98.792
  0
LINE
  8
0
 10
37.307
 11
55.307
 20
98.792
 21
98.792
  0
LINE
  8
0
 10
55.307
 11
55.307
 20
98.792
 21
83.792
  0
LINE
  8
0
 10
55.307
 11
37.307
 20
83.792
 21
83.792
  0
LINE
  8
0
 10
37.307
 11
37.307
 20
102.05
 21
117.05
  0
LINE
  8
0
 10
37.307
 11
55.307
 20
117.05
 21
117.05
  0
LINE
  8
0
 10
55.307
 11
55.307
 20
117.05
 21
102.05
  0
LINE
  8
0
 10
55.307
 11
37.307
 20
102.05
 21
102.05
  0
LINE
  8
0
 10
68.179
 11
68.179
 20
-117.05
 21
-102.05
  0
LINE
  8
0
 10
68.179
 11
86.179
 20
-102.05
 21
-102.05
  0
LINE
  8
0
 10
86.179
 11
86.179
 20
-102.05
 21
-117.05
  0
LINE
  8
0
 10
86.179
 11
68.179
 20
-117.05
 21
-117.05
  0
LINE
  8
0
 10
68.179
 11
68.179
 20
-98.792
 21
-83.792
  0
LINE
  8
0
 10
68.179
 11
86.179
 20
-83.792
 21
-83.792
  0
LINE
  8
0
 10
86.179
 11
86.179
 20
-83.792
 21
-98.792
  0
LINE
  8
0
 10
86.179
 11
68.179
 20
-98.792
 21
-98.792
  0
LINE
  8
0
 10
68.179
 11
68.179
 20
-80.533
 21
-65.533
  0
LINE
  8
0
 10
68.179
 11
86.179
 20
-65.533
 21
-65.533
  0
LINE
  8
0
 10
86.179
 11
86.179
 20
-65.533
 21
-80.533
  0
LINE
  8
0
 10
86.179
 11
68.179
 20
-80.533
 21
-80.533
  0
LINE
  8
0
 10
68.179
 11
68.179
 20
-62.275
 21
-47.275
  0
LINE
  8
0
 10
68.179
 11
86.179
 20
-47.275
 21
-47.275
  0
LINE
  8
0
 10
86.179
 11
86.179
 20
-47.275
 21
-62.275
  0
LINE
  8
0
 10
86.179
 11
68.179
 20
-62.275
 21
-62.275
  0
LINE
  8
0
 10
68.179
 11
68.179
 20
-44.017
 21
-29.017
  0
LINE
  8
0
 10
68.179
 11
86.179
 20
-29.017
 21
-29.017
  0
LINE
  8
0
 10
86.179
 11
86.179
 20
-29.017
 21
-44.017
  0
LINE
  8
0
 10
86.179
 11
68.179
 20
-44.017
 21
-44.017
  0
LINE
  8
0
 10
68.179
 11
68.179
 20
-25.758
 21
-10.758
  0
LINE
  8
0
 10
68.179
 11
86.179
 20
-10.758
 21
-10.758
  0
LINE
  8
0
 10
86.179
 11
86.179
 20
-10.758
 21
-25.758
  0
LINE
  8
0
 10
86.179
 11
68.179
 20
-25.758
 21
-25.758
  0
LINE
  8
0
 10
68.179
 11
68.179
 20
-7.5
 21
7.5
  0
LINE
  8
0
 10
68.179
 11
86.179
 20
7.5
 21
7.5
  0
LINE
  8
0
 10
86.179
 11
86.179
 20
7.5
 21
-7.5
  0
LINE
  8
0
 10
86.179
 11
68.179
 20
-7.5
 21
-7.5
  0
LINE
  8
0
 10
68.179
 11
68.179
 20
10.758
 21
25.758
  0
LINE
  8
0
 10
68.179
 11
86.179
 20
25.758
 21
25.758
  0
LINE
  8
0
 10
86.179
 11
86.179
 20
25.758
 21
10.758
  0
LINE
  8
0
 10
86.179
 11
68.179
 20
10.758
 21
10.758
  0
LINE
  8
0
 10
68.179
 11
68.179
 20
29.017
 21
44.017
  0
LINE
  8
0
 10
68.179
 11
86.179
 20
44.017
 21
44.017
  0
LINE
  8
0
 10
86.179
 11
86.179
 20
44.017
 21
29.017
  0
LINE
  8
0
 10
86.179
 11
68.179
 20
29.017
 21
29.017
  0
LINE
  8
0
 10
68.179
 11
68.179
 20
47.275
 21
62.275
  0
LINE
  8
0
 10
68.179
 11
86.179
 20
62.275
 21
62.275
  0
LINE
  8
0
 10
86.179
 11
86.179
 20
62.275
 21
47.275
  0
LINE
  8
0
 10
86.179
 11
68.179
 20
47.275
 21
47.275
  0
LINE
  8
0
 10
68.179
 11
68.179
 20
65.533
 21
80.533
  0
LINE
  8
0
 10
68.179
 11
86.179
 20
80.533
 21
80.533
  0
LINE
  8
0
 10
86.179
 11
86.179
 20
80.533
 21
65.533
  0
LINE
  8
0
 10
86.179
 11
68.179
 20
65.533
 21
65.533
  0
LINE
  8
0
 10
68.179
 11
68.179
 20
83.792
 21
98.792
  0
LINE
  8
0
 10
68.179
 11
86.179
 20
98.792
 21
98.792
  0
LINE
  8
0
 10
86.179
 11
86.179
 20
98.792
 21
83.792
  0
LINE
  8
0
 10
86.179
 11
68.179
 20
83.792
 21
83.792
  0
LINE
  8
0
 10
68.179
 11
68.179
 20
102.05
 21
117.05
  0
LINE
  8
0
 10
68.179
 11
86.179
 20
117.05
 21
117.05
  0
LINE
  8
0
 10
86.179
 11
86.179
 20
117.05
 21
102.05
  0
LINE
  8
0
 10
86.179
 11
68.179
 20
102.05
 21
102.05
  0
LINE
  8
0
 10
99.05
 11
99.05
 20
-117.05
 21
-102.05
  0
LINE
  8
0
 10
99.05
 11
117.05
 20
-102.05
 21
-102.05
  0
LINE
  8
0
 10
117.05
 11
117.05
 20
-102.05
 21
-117.05
  0
LINE
  8
0
 10
117.05
 11
99.05
 20
-117.05
 21
-117.05
  0
LINE
  8
0
 10
99.05
 11
99.05
 20
-98.792
 21
-83.792
  0
LINE
  8
0
 10
99.05
 11
117.05
 20
-83.792
 21
-83.792
  0
LINE
  8
0
 10
117.05
 11
117.05
 20
-83.792
 21
-98.792
  0
LINE
  8
0
 10
117.05
 11
99.05
 20
-98.792
 21
-98.792
  0
LINE
  8
0
 10
99.05
 11
99.05
 20
-80.533
 21
-65.533
  0
LINE
  8
0
 10
99.05
 11
117.05
 20
-65.533
 21
-65.533
  0
LINE
  8
0
 10
117.05
 11
117.05
 20
-65.533
 21
-80.533
  0
LINE
  8
0
 10
117.05
 11
99.05
 20
-80.533
 21
-80.533
  0
LINE
  8
0
 10
99.05
 11
99.05
 20
-62.275
 21
-47.275
  0
LINE
  8
0
 10
99.05
 11
117.05
 20
-47.275
 21
-47.275
  0
LINE
  8
0
 10
117.05
 11
117.05
 20
-47.275
 21
-62.275
  0
LINE
  8
0
 10
117.05
 11
99.05
 20
-62.275
 21
-62.275
  0
LINE
  8
0
 10
99.05
 11
99.05
 20
-44.017
 21
-29.017
  0
LINE
  8
0
 10
99.05
 11
117.05
 20
-29.017
 21
-29.017
  0
LINE
  8
0
 10
117.05
 11
117.05
 20
-29.017
 21
-44.017
  0
LINE
  8
0
 10
117.05
 11
99.05
 20
-44.017
 21
-44.017
  0
LINE
  8
0
 10
99.05
 11
99.05
 20
-25.758
 21
-10.758
  0
LINE
  8
0
 10
99.05
 11
117.05
 20
-10.758
 21
-10.758
  0
LINE
  8
0
 10
117.05
 11
117.05
 20
-10.758
 21
-25.758
  0
LINE
  8
0
 10
117.05
 11
99.05
 20
-25.758
 21
-25.758
  0
LINE
  8
0
 10
99.05
 11
99.05
 20
-7.5
 21
7.5
  0
LINE
  8
0
 10
99.05
 11
117.05
 20
7.5
 21
7.5
  0
LINE
  8
0
 10
117.05
 11
117.05
 20
7.5
 21
-7.5
  0
LINE
  8
0
 10
117.05
 11
99.05
 20
-7.5
 21
-7.5
  0
LINE
  8
0
 10
99.05
 11
99.05
 20
10.758
 21
25.758
  0
LINE
  8
0
 10
99.05
 11
117.05
 20
25.758
 21
25.758
  0
LINE
  8
0
 10
117.05
 11
117.05
 20
25.758
 21
10.758
  0
LINE
  8
0
 10
117.05
 11
99.05
 20
10.758
 21
10.758
  0
LINE
  8
0
 10
99.05
 11
99.05
 20
29.017
 21
44.017
  0
LINE
  8
0
 10
99.05
 11
117.05
 20
44.017
 21
44.017
  0
LINE
  8
0
 10
117.05
 11
117.05
 20
44.017
 21
29.017
  0
LINE
  8
0
 10
117.05
 11
99.05
 20
29.017
 21
29.017
  0
LINE
  8
0
 10
99.05
 11
99.05
 20
47.275
 21
62.275
  0
LINE
  8
0
 10
99.05
 11
117.05
 20
62.275
 21
62.275
  0
LINE
  8
0
 10
117.05
 11
117.05
 20
62.275
 21
47.275
  0
LINE
  8
0
 10
117.05
 11
99.05
 20
47.275
 21
47.275
  0
LINE
  8
0
 10
99.05
 11
99.05
 20
65.533
 21
80.533
  0
LINE
  8
0
 10
99.05
 11
117.05
 20
80.533
 21
80.533
  0
LINE
  8
0
 10
117.05
 11
117.05
 20
80.533
 21
65.533
  0
LINE
  8
0
 10
117.05
 11
99.05
 20
65.533
 21
65.533
  0
LINE
  8
0
 10
99.05
 11
99.05
 20
83.792
 21
98.792
  0
LINE
  8
0
 10
99.05
 11
117.05
 20
98.792
 21
98.792
  0
LINE
  8
0
 10
117.05
 11
117.05
 20
98.792
 21
83.792
  0
LINE
  8
0
 10
117.05
 11
99.05
 20
83.792
 21
83.792
  0
LINE
  8
0
 10
99.05
 11
99.05
 20
102.05
 21
117.05
  0
LINE
  8
0
 10
99.05
 11
117.05
 20
117.05
 21
117.05
  0
LINE
  8
0
 10
117.05
 11
117.05
 20
117.05
 21
102.05
  0
LINE
  8
0
 10
117.05
 11
99.05
 20
102.05
 21
102.05
  0
ENDSEC
  0
SECTION
  2
OBJECTS
  0
DICTIONARY
  0
ENDSEC
  0
EOF
