<?xml version="1.0" encoding="UTF-8" standalone="no"?>
<!-- Created with Inkscape (http://www.inkscape.org/) -->

<svg
   xmlns:dc="http://purl.org/dc/elements/1.1/"
   xmlns:cc="http://creativecommons.org/ns#"
   xmlns:rdf="http://www.w3.org/1999/02/22-rdf-syntax-ns#"
   xmlns:svg="http://www.w3.org/2000/svg"
   xmlns="http://www.w3.org/2000/svg"
   xmlns:sodipodi="http://sodipodi.sourceforge.net/DTD/sodipodi-0.dtd"
   xmlns:inkscape="http://www.inkscape.org/namespaces/inkscape"
   width="1035"
   height="1035"
   id="svg2"
   version="1.1"
   inkscape:version="0.48.3.1 r9886"
   sodipodi:docname="New document 1">
  <defs
     id="defs4" />
  <sodipodi:namedview
     id="base"
     pagecolor="#ffffff"
     bordercolor="#666666"
     borderopacity="1.0"
     inkscape:pageopacity="0.0"
     inkscape:pageshadow="2"
     inkscape:zoom="0.7"
     inkscape:cx="539.55378"
     inkscape:cy="615.6658"
     inkscape:document-units="px"
     inkscape:current-layer="layer1"
     showgrid="false"
     showguides="true"
     inkscape:guide-bbox="true"
     fit-margin-top="0"
     fit-margin-left="0"
     fit-margin-right="0"
     fit-margin-bottom="0"
     inkscape:window-width="1855"
     inkscape:window-height="1176"
     inkscape:window-x="65"
     inkscape:window-y="24"
     inkscape:window-maximized="1" />
  <metadata
     id="metadata7">
    <rdf:RDF>
      <cc:Work
         rdf:about="">
        <dc:format>image/svg+xml</dc:format>
        <dc:type
           rdf:resource="http://purl.org/dc/dcmitype/StillImage" />
        <dc:title></dc:title>
      </cc:Work>
    </rdf:RDF>
  </metadata>
  <g
     inkscape:label="Layer 1"
     inkscape:groupmode="layer"
     id="layer1"
     transform="translate(76.910714,120.08036)">
    <path
       style="fill:#000000;fill-opacity:1;stroke:none"
       d="m 958.08929,-120.08036 0,1035 -1035.000004,0 0,-1035 1035.000004,0 z M 575.74554,-7.5803571 c -2.0472,4e-5 -4.1248,0.16085 -6.25,0.53125 -2.1252,0.3705 -4.30845,0.94664 -6.53125,1.6875 l 0,5.75000001 c 2.2423,-1.07232 4.35505,-1.87978001 6.34375,-2.40625001 1.9888,-0.52638 3.8978,-0.78121 5.75,-0.78125 3.2171,4e-5 5.71395,0.62721 7.46875,1.87500001 1.7352,1.24787 2.59375,3.01183999 2.59375,5.31249999 0,1.93027 -0.56845,3.41192 -1.71875,4.40625 -1.1699,0.97491 -3.35715,1.7393601 -6.59375,2.3437501 l -3.5625,0.75 c -4.4064,0.83842 -7.6638,2.3123 -9.75,4.4375 -2.1057,2.10574 -3.15625,4.95149 -3.15625,8.5 0,4.23094 1.4034,7.41005 4.25,9.59375 2.8272,2.18371 6.99005,3.28125 12.46875,3.28125 2.0668,0 4.2853,-0.21957 6.625,-0.6875 2.3202,-0.46794 4.72315,-1.17737 7.21875,-2.09375 l 0,-6.0625 c -2.3981,1.34532 -4.7618,2.34884 -7.0625,3.03125 -2.3006,0.68241 -4.55845,1.03125 -6.78125,1.03125 -3.373,0 -5.9797,-0.67417 -7.8125,-2 -1.8327,-1.32581 -2.75,-3.19957 -2.75,-5.65625 0,-2.1447 0.6743,-3.8224 2,-5.03125 1.3064,-1.20882 3.46625,-2.11431 6.46875,-2.71875 l 3.59375,-0.71875 c 4.4064,-0.87735 7.5932,-2.25322 9.5625,-4.125 1.9692,-1.87171 2.9375,-4.4784201 2.9375,-7.8125001 0,-3.86043999 -1.3523,-6.90226 -4.0625,-9.125 -2.7296,-2.22265 -6.4732,-3.31246 -11.25,-3.3125 z m -69.78125,0 c -2.6126,4e-5 -5.0743,0.32939 -7.375,1.03125 -2.3201,0.68245 -4.50345,1.70947 -6.53125,3.09375 l 0,6.25 c 1.9888,-1.85220999 4.1133,-3.23983999 6.375,-4.15625 2.2422,-0.91634 4.62155,-1.37497 7.15625,-1.375 4.9913,3e-5 8.81715,1.5327 11.46875,4.59375 2.6517,3.04163 4,7.44754 4,13.2187501 0,5.75174 -1.3483,10.15768 -4,13.21875 -2.6516,3.0416 -6.47745,4.5625 -11.46875,4.5625 -2.5347,0 -4.91405,-0.45861 -7.15625,-1.375 -2.2617,-0.91636 -4.3862,-2.30398 -6.375,-4.15625 l 0,6.15625 c 2.0668,1.40381 4.27355,2.48559 6.59375,3.1875 2.3007,0.7019 4.7389,1.03125 7.3125,1.03125 6.6097,0 11.79185,-1.9953 15.59375,-6.03125 3.802,-4.05545 5.71875,-9.59418 5.71875,-16.59375 0,-7.0190301 -1.91675,-12.5577501 -5.71875,-16.5937501 -3.8019,-4.0554 -8.98405,-6.06246 -15.59375,-6.0625 z m 322.375,0.8125 -5.90625,0 0,43.6562501 5.90625,0 0,-43.6562501 z m -45.9375,0 -36.9375,0 0,4.96875 15.5,0 0,38.6875001 5.9375,0 0,-38.6875001 15.5,0 0,-4.96875 z m -64.21875,0 -13.3125,0 c -4.9913,6e-5 -8.7308,1.03881 -11.1875,3.125 -2.4567,2.08625 -3.6875,5.2261 -3.6875,9.4375 0,2.74917 0.6507,5.0305301 1.9375,6.8437501 1.2674,1.81329 3.1253,3.07937 5.5625,3.78125 -1.2673,0.42896 -2.4982,1.34621 -3.6875,2.75 -1.2088,1.40383 -2.4161,3.3246 -3.625,5.78125 l -6,11.9375 6.34375,0 5.59375,-11.1875 c 1.4428,-2.9246 2.85395,-4.88837 4.21875,-5.84375 1.3454,-0.95536 3.19165,-1.40624 5.53125,-1.40625 l 6.40625,0 0,18.4375 5.90625,0 0,-43.6562501 z m -75.21875,0 -5.90625,0 0,43.6562501 5.90625,0 0,-43.6562501 z m -176.46875,0 -36.9375,0 0,4.96875 15.5,0 0,38.6875001 5.9375,0 0,-38.6875001 15.5,0 0,-4.96875 z m -66.03125,0 -27.59375,0 0,4.96875 21.6875,0 0,12.9375001 -20.78125,0 0,4.96875 20.78125,0 0,15.8125 -22.21875,0 0,4.96875 28.125,0 0,-43.6562501 z m -61.625,0 -7.96875,0 -19.34375,36.5312501 0,-36.5312501 -5.75,0 0,43.6562501 7.96875,0 19.34375,-36.53125009 0,36.53125009 5.75,0 0,-43.6562501 z m -57.84375,0 -5.90625,0 0,17.9062501 -21.46875,0 0,-17.9062501 -5.90625,0 0,43.6562501 5.90625,0 0,-20.78125 21.46875,0 0,20.78125 5.90625,0 0,-43.6562501 z m -73.1875,0 -6.71875,0 -16.625,43.6562501 6.125,0 4,-11.1875 19.6875,0 3.96875,11.1875 6.21875,0 -16.65625,-43.6562501 z m -63.21875,0 -5.90625,0 0,38.6875001 -21.28125,0 0,4.96875 27.1875,0 0,-43.6562501 z m -76.250004,0 -25.09375,0 0,4.96875 19.1875,0 0,12.8750001 -17.3125,0 0,4.96875 17.3125,0 0,20.84375 5.90625,0 0,-43.6562501 z m 643.937504,4.84375 0,15.5000001 -7.40625,0 c -2.8466,4e-5 -4.9946,-0.6624 -6.4375,-1.96875 -1.4622,-1.3258 -2.1875,-3.2583201 -2.1875,-5.8125001 0,-2.55412 0.7253,-4.46314 2.1875,-5.74999999 1.4429,-1.30629001 3.5909,-1.96872001 6.4375,-1.96875001 l 7.40625,0 z m -507.8125,0.96875001 8,21.71875009 -16.03125,0 8.03125,-21.71875009 z m 620.875,98.81250009 c -6.12215,5e-5 -10.9907,2.07359 -14.65625,6.187497 -3.66546,4.09448 -5.49995,9.5667 -5.5,16.46875 5e-5,5.06934 1.01532,9.42424 3.0625,13.03125 2.02777,3.60702 4.98331,6.25298 8.84375,7.96875 l -7.78125,8.53125 7.125,0 6.46875,-7 c 0.64344,0.0389 1.11782,0.0743 1.46875,0.0937 0.33148,0.0194 0.65682,0.0312 0.96875,0.0312 6.14171,0 11.06501,-2.0618 14.75,-6.15625 3.66552,-4.11394 5.5,-9.61741 5.5,-16.5 0,-6.90205 -1.83448,-12.37427 -5.5,-16.46875 -3.68499,-4.113907 -8.60829,-6.187447 -14.75,-6.187497 z m -44.71875,3.843747 -5.90625,0 0,26.53125 c 10e-6,4.67938 -0.86622,8.02704 -2.5625,10.09375 -1.69626,2.04724 -4.44798,3.09375 -8.25,3.09375 -3.78246,0 -6.52246,-1.04651 -8.21875,-3.09375 -1.69625,-2.06671 -2.53122,-5.41437 -2.53125,-10.09375 l 0,-26.53125 -5.9375,0 0,27.25 c 4e-5,5.69325 1.39166,10.00115 4.21875,12.90625 2.80764,2.90512 6.97051,4.34375 12.46875,4.34375 5.51778,0 9.70414,-1.43863 12.53125,-4.34375 2.80762,-2.9051 4.1875,-7.213 4.1875,-12.90625 l 0,-27.25 z m -76.09375,0.40625 -6.6875,0 -16.65625,43.6875 6.15625,0 3.96875,-11.21875 19.6875,0 3.96875,11.21875 6.21875,0 -16.65625,-43.6875 z m -47.53125,0 -13.34375,0 c -4.9913,6e-5 -8.69955,1.03881 -11.15625,3.125 -2.4566,2.08625 -3.6875,5.25735 -3.6875,9.46875 0,2.74917 0.6507,5.03053 1.9375,6.84375 1.2673,1.81329 3.1254,3.04812 5.5625,3.75 -1.2673,0.42896 -2.4981,1.34621 -3.6875,2.75 -1.2088,1.40383 -2.4161,3.35585 -3.625,5.8125 l -6,11.9375 6.34375,0 5.59375,-11.21875 c 1.4429,-2.9246 2.8227,-4.85712 4.1875,-5.8125 1.3453,-0.95536 3.19155,-1.43749 5.53125,-1.4375 l 6.4375,0 0,18.46875 5.90625,0 0,-43.6875 z m -62.8125,0 -36.9375,0 0,4.96875 15.5,0 0,38.71875 5.9375,0 0,-38.71875 15.5,0 0,-4.96875 z m -70.4375,0 -27.625,0 0,4.96875 21.71875,0 0,12.9375 -20.8125,0 0,4.96875 20.8125,0 0,15.8125 -22.25,0 0,5 28.15625,0 0,-43.6875 z m -58.71875,0 -13.3125,0 c -4.9913,6e-5 -8.7308,1.03881 -11.1875,3.125 -2.4566,2.08625 -3.6875,5.25735 -3.6875,9.46875 0,2.74917 0.6508,5.03053 1.9375,6.84375 1.2674,1.81329 3.1254,3.04812 5.5625,3.75 -1.2673,0.42896 -2.4981,1.34621 -3.6875,2.75 -1.2088,1.40383 -2.4161,3.35585 -3.625,5.8125 l -6,11.9375 6.34375,0 5.59375,-11.21875 c 1.4429,-2.9246 2.85395,-4.85712 4.21875,-5.8125 1.3453,-0.95536 3.1603,-1.43749 5.5,-1.4375 l 6.4375,0 0,18.46875 5.90625,0 0,-43.6875 z m -60.15625,0 -36.9375,0 0,4.96875 15.5,0 0,38.71875 5.9375,0 0,-38.71875 15.5,0 0,-4.96875 z m -54.9375,0 -5.96875,0 -9.15625,36.90625 -9.15625,-36.90625 -6.65625,0 -9.1875,36.90625 -9.15625,-36.90625 -5.96875,0 10.96875,43.6875 7.40625,0 9.21875,-37.90625 9.3125,37.90625 7.40625,0 10.9375,-43.6875 z m -71.5,0 -27.625,0 0,4.96875 21.71875,0 0,12.9375 -20.8125,0 0,4.96875 20.8125,0 0,15.8125 -22.25,0 0,5 28.15625,0 0,-43.6875 z m -57.4375,0 -7.96875,0 -19.34375,36.53125 0,-36.53125 -5.75,0 0,43.6875 7.96875,0 19.34375,-36.53125 0,36.53125 5.75,0 0,-43.6875 z m -71.53125,0 -36.9375,0 0,4.96875 15.5,0 0,38.71875 5.9375,0 0,-38.71875 15.5,0 0,-4.96875 z m -75.250004,0 -6.34375,0 -12.125,17.96875 -12,-17.96875 -6.34375,0 15.4375,22.875 0,20.8125 5.9375,0 0,-20.8125 15.4375,-22.875 z m 751.125004,0.5625 c 4.28945,4e-5 7.71535,1.58373 10.25,4.78125 2.51517,3.19761 3.78126,7.54476 3.78125,13.0625 10e-6,5.49828 -1.26608,9.86494 -3.78125,13.0625 -2.53465,3.19757 -5.96055,4.78125 -10.25,4.78125 -4.28939,0 -7.66055,-1.58368 -10.15625,-4.78125 -2.51513,-3.19756 -3.78122,-7.56422 -3.78125,-13.0625 3e-5,-5.51774 1.26612,-9.86489 3.78125,-13.0625 2.4957,-3.19752 5.86686,-4.78121 10.15625,-4.78125 z m -174.25,4.3125 0,15.5 -7.4375,0 c -2.8466,4e-5 -4.96345,-0.6624 -6.40625,-1.96875 -1.4623,-1.3258 -2.21865,-3.25832 -2.21875,-5.8125 10e-5,-2.55412 0.75645,-4.49439 2.21875,-5.78125 1.4428,-1.30629 3.55965,-1.93747 6.40625,-1.9375 l 7.4375,0 z m -191.96875,0 0,15.5 -7.40625,0 c -2.8466,4e-5 -4.9947,-0.6624 -6.4375,-1.96875 -1.4623,-1.3258 -2.1875,-3.25832 -2.1875,-5.8125 10e-5,-2.55412 0.7252,-4.49439 2.1875,-5.78125 1.4428,-1.30629 3.5909,-1.93747 6.4375,-1.9375 l 7.40625,0 z m 242.0625,0.96875 8.03125,21.71875 -16.0625,0 8.03125,-21.71875 z m -129.1875,103.0625 c -2.6127,4e-5 -5.0742,0.36064 -7.375,1.0625 -2.3201,0.68245 -4.50355,1.70947 -6.53125,3.09375 l 0,6.21875 c 1.9887,-1.85221 4.1133,-3.23984 6.375,-4.15625 2.2422,-0.91634 4.62165,-1.37497 7.15625,-1.375 4.9914,3e-5 8.81705,1.5327 11.46875,4.59375 2.6516,3.04163 4,7.44754 4,13.21875 0,5.75174 -1.3484,10.15768 -4,13.21875 -2.6517,3.0416 -6.47735,4.5625 -11.46875,4.5625 -2.5346,0 -4.91405,-0.45861 -7.15625,-1.375 -2.2617,-0.91636 -4.3863,-2.30398 -6.375,-4.15625 l 0,6.1875 c 2.0667,1.40381 4.27365,2.45434 6.59375,3.15625 2.3008,0.7019 4.7388,1.0625 7.3125,1.0625 6.6096,0 11.79175,-2.02655 15.59375,-6.0625 3.802,-4.05545 5.71875,-9.59418 5.71875,-16.59375 0,-7.01903 -1.91675,-12.5265 -5.71875,-16.5625 -3.802,-4.0554 -8.98415,-6.09371 -15.59375,-6.09375 z m -440.9375,0 c -2.0472,4e-5 -4.15605,0.1921 -6.28125,0.5625 -2.1252,0.3705 -4.2772,0.91539 -6.5,1.65625 l 0,5.75 c 2.2423,-1.07232 4.35505,-1.84853 6.34375,-2.375 1.9888,-0.52638 3.8978,-0.81246 5.75,-0.8125 3.2171,4e-5 5.71395,0.62721 7.46875,1.875 1.7352,1.24787 2.59375,3.04309 2.59375,5.34375 0,1.93027 -0.56835,3.38067 -1.71875,4.375 -1.1698,0.97491 -3.3884,1.77061 -6.625,2.375 l -3.5625,0.71875 c -4.4064,0.83842 -7.6638,2.3123 -9.75,4.4375 -2.1057,2.10574 -3.15625,4.95149 -3.15625,8.5 0,4.23094 1.43465,7.4413 4.28125,9.625 2.8272,2.18371 6.99005,3.28125 12.46875,3.28125 2.0668,0 4.25405,-0.25082 6.59375,-0.71875 2.3201,-0.46794 4.72315,-1.14612 7.21875,-2.0625 l 0,-6.09375 c -2.3981,1.34532 -4.73055,2.34884 -7.03125,3.03125 -2.3006,0.68241 -4.55845,1.03125 -6.78125,1.03125 -3.373,0 -5.9797,-0.67417 -7.8125,-2 -1.8327,-1.32581 -2.75,-3.19957 -2.75,-5.65625 0,-2.1447 0.6742,-3.8224 2,-5.03125 1.3064,-1.20882 3.435,-2.11431 6.4375,-2.71875 l 3.59375,-0.71875 c 4.4064,-0.87735 7.5932,-2.25322 9.5625,-4.125 1.9692,-1.87171 2.96875,-4.44717 2.96875,-7.78125 0,-3.86044 -1.3524,-6.90226 -4.0625,-9.125 -2.7296,-2.22265 -6.4732,-3.34371 -11.25,-3.34375 z m 207.96875,0.375 -5.9375,0 0,26.53125 c 10e-5,4.67938 -0.8662,8.05829 -2.5625,10.125 -1.6962,2.04724 -4.41675,3.0625 -8.21875,3.0625 -3.7824,0 -6.52245,-1.01526 -8.21875,-3.0625 -1.6962,-2.06671 -2.5625,-5.44562 -2.5625,-10.125 l 0,-26.53125 -5.9375,0 0,27.28125 c 10e-5,5.69325 1.4229,9.9699 4.25,12.875 2.8077,2.90512 6.97055,4.375 12.46875,4.375 5.5178,0 9.6729,-1.46988 12.5,-4.375 2.8076,-2.9051 4.21875,-7.18175 4.21875,-12.875 l 0,-27.28125 z m 498.90625,0.4375 -25.09375,0 0,4.96875 19.1875,0 0,12.875 -17.3125,0 0,4.96875 17.3125,0 0,20.84375 5.90625,0 0,-43.65625 z m -71.0625,0 -5.90625,0 0,43.65625 5.90625,0 0,-43.65625 z m -45.6875,0 -6.15625,0 -13.84375,36.75 -13.84375,-36.75 -6.15625,0 16.65625,43.65625 6.6875,0 16.65625,-43.65625 z m -67.125,0 -27.59375,0 0,4.96875 21.6875,0 0,12.9375 -20.78125,0 0,4.96875 20.78125,0 0,15.8125 -22.21875,0 0,4.96875 28.125,0 0,-43.65625 z m -124.40625,0 -8.8125,0 -11.15625,29.71875 -11.1875,-29.71875 -8.8125,0 0,43.65625 5.78125,0 0,-38.34375 11.25,29.96875 5.9375,0 11.25,-29.96875 0,38.34375 5.75,0 0,-43.65625 z m -78.65625,0 -5.90625,0 0,43.65625 5.90625,0 0,-43.65625 z m -48.0625,0 -7.96875,0 -19.34375,36.53125 0,-36.53125 -5.75,0 0,43.65625 7.96875,0 19.34375,-36.53125 0,36.53125 5.75,0 0,-43.65625 z m -120.09375,0 -36.9375,0 0,4.96875 15.5,0 0,38.6875 5.9375,0 0,-38.6875 15.5,0 0,-4.96875 z m -64.3125,0 -27.59375,0 0,4.96875 21.6875,0 0,12.9375 -20.78125,0 0,4.96875 20.78125,0 0,15.8125 -22.21875,0 0,4.96875 28.125,0 0,-43.65625 z m -146.093754,0 -5.90625,0 0,17.90625 -21.46875,0 0,-17.90625 -5.90625,0 0,43.65625 5.90625,0 0,-20.78125 21.46875,0 0,20.78125 5.90625,0 0,-43.65625 z M 701.24554,320.73214 c -2.0472,4e-5 -4.15605,0.16085 -6.28125,0.53125 -2.1252,0.3705 -4.2772,0.94664 -6.5,1.6875 l 0,5.75 c 2.2423,-1.07232 4.35505,-1.87978 6.34375,-2.40625 1.9888,-0.52638 3.8978,-0.78121 5.75,-0.78125 3.2171,4e-5 5.71395,0.62721 7.46875,1.875 1.7352,1.24787 2.59375,3.01184 2.59375,5.3125 0,1.93027 -0.56835,3.41192 -1.71875,4.40625 -1.1698,0.97491 -3.3884,1.73936 -6.625,2.34375 l -3.5625,0.75 c -4.4064,0.83842 -7.63255,2.3123 -9.71875,4.4375 -2.1057,2.10574 -3.1875,4.95149 -3.1875,8.5 0,4.23094 1.43465,7.41005 4.28125,9.59375 2.8272,2.18371 6.99005,3.28125 12.46875,3.28125 2.0668,0 4.25405,-0.21957 6.59375,-0.6875 2.3201,-0.46794 4.72309,-1.17737 7.21875,-2.09375 l 0,-6.0625 c -2.39817,1.34532 -4.73055,2.34884 -7.03125,3.03125 -2.3006,0.68241 -4.55845,1.03125 -6.78125,1.03125 -3.373,0 -5.9797,-0.67417 -7.8125,-2 -1.8327,-1.32581 -2.75,-3.19957 -2.75,-5.65625 0,-2.1447 0.6742,-3.8224 2,-5.03125 1.3064,-1.20882 3.435,-2.11431 6.4375,-2.71875 l 3.625,-0.71875 c 4.4064,-0.87735 7.59323,-2.25322 9.5625,-4.125 1.96924,-1.87171 2.93752,-4.47842 2.9375,-7.8125 2e-5,-3.86044 -1.35235,-6.90226 -4.0625,-9.125 -2.7296,-2.22265 -6.4732,-3.31246 -11.25,-3.3125 z m -191.59375,0 c -6.1221,4e-5 -11.022,2.04235 -14.6875,6.15625 -3.6655,4.09449 -5.4999,9.59795 -5.5,16.5 10e-5,6.88259 1.8345,12.38607 5.5,16.5 3.6655,4.09446 8.5654,6.125 14.6875,6.125 6.1417,0 11.03375,-2.03054 14.71875,-6.125 3.6655,-4.09443 5.5,-9.59791 5.5,-16.5 0,-6.90205 -1.8345,-12.40551 -5.5,-16.5 -3.685,-4.1139 -8.57705,-6.15621 -14.71875,-6.15625 z m -123.28125,0 c -6.1221,4e-5 -11.0219,2.04235 -14.6875,6.15625 -3.6655,4.09449 -5.4999,9.59795 -5.5,16.5 10e-5,6.88259 1.8345,12.38607 5.5,16.5 3.6656,4.09446 8.5654,6.125 14.6875,6.125 6.1417,0 11.065,-2.03054 14.75,-6.125 3.6655,-4.09443 5.5,-9.59791 5.5,-16.5 0,-6.90205 -1.8345,-12.40551 -5.5,-16.5 -3.685,-4.1139 -8.6083,-6.15621 -14.75,-6.15625 z m -330.593754,0 c -6.1222,4e-5 -11.022,2.04235 -14.6875,6.15625 -3.6655,4.09449 -5.5,9.59795 -5.5,16.5 0,6.88259 1.8345,12.38607 5.5,16.5 3.6655,4.09446 8.5653,6.125 14.6875,6.125 6.1416,0 11.03375,-2.03054 14.71875,-6.125 3.6656,-4.09443 5.5,-9.59791 5.5,-16.5 0,-6.90205 -1.8344,-12.40551 -5.5,-16.5 -3.685,-4.1139 -8.57715,-6.15621 -14.71875,-6.15625 z m 783.687504,0.8125 -13.3125,0 c -4.89383,6e-5 -8.59806,1.08984 -11.09375,3.3125 -2.51514,2.20324 -3.78122,5.44885 -3.78125,9.71875 3e-5,4.30895 1.26611,7.57806 3.78125,9.78125 2.49569,2.20322 6.19993,3.31253 11.09375,3.3125 l 7.40625,0 0,17.53125 5.90625,0 0,-43.65625 z m -72.21875,0 -6.6875,0 -16.625,43.65625 6.125,0 3.96875,-11.1875 19.6875,0 3.96875,11.1875 6.25,0 -16.6875,-43.65625 z m -108.78125,0 -36.9375,0 0,4.96875 15.5,0 0,38.6875 5.9375,0 0,-38.6875 15.5,0 0,-4.96875 z m -64.28125,0 -36.9375,0 0,4.96875 15.5,0 0,38.6875 5.9375,0 0,-38.6875 15.5,0 0,-4.96875 z m -132.09375,0 -27.59375,0 0,4.96875 21.6875,0 0,12.9375 -20.78125,0 0,4.96875 20.78125,0 0,15.8125 -22.21875,0 0,4.96875 28.125,0 0,-43.65625 z m -123.25,0 -7.96875,0 -19.34375,36.53125 0,-36.53125 -5.75,0 0,43.65625 7.96875,0 19.34375,-36.53125 0,36.53125 5.75,0 0,-43.65625 z m -60.40625,0 -27.625,0 0,4.96875 21.71875,0 0,12.9375 -20.8125,0 0,4.96875 20.8125,0 0,15.8125 -22.25,0 0,4.96875 28.15625,0 0,-43.65625 z m -55.5,0 -36.9375,0 0,4.96875 15.5,0 0,38.6875 5.9375,0 0,-38.6875 15.5,0 0,-4.96875 z m -64.28125,0 -5.96875,0 -9.1875,36.90625 -9.15625,-36.90625 -6.65625,0 -9.15625,36.90625 -9.15625,-36.90625 -6,0 10.96875,43.65625 7.40625,0 9.21875,-37.90625 9.3125,37.90625 7.4375,0 10.9375,-43.65625 z m 351,3.96875 c 4.2895,4e-5 7.68405,1.61498 10.21875,4.8125 2.5151,3.19761 3.78125,7.54476 3.78125,13.0625 0,5.49828 -1.26615,9.83369 -3.78125,13.03125 -2.5347,3.19757 -5.92925,4.8125 -10.21875,4.8125 -4.2894,0 -7.6918,-1.61493 -10.1875,-4.8125 -2.5151,-3.19756 -3.78125,-7.53297 -3.78125,-13.03125 0,-5.51774 1.26615,-9.86489 3.78125,-13.0625 2.4957,-3.19752 5.8981,-4.81246 10.1875,-4.8125 z m -123.28125,0 c 4.2895,4e-5 7.7153,1.61498 10.25,4.8125 2.5151,3.19761 3.75,7.54476 3.75,13.0625 0,5.49828 -1.2349,9.83369 -3.75,13.03125 -2.5347,3.19757 -5.9605,4.8125 -10.25,4.8125 -4.2894,0 -7.6918,-1.61493 -10.1875,-4.8125 -2.5151,-3.19756 -3.75,-7.53297 -3.75,-13.03125 0,-5.51774 1.2349,-9.86489 3.75,-13.0625 2.4957,-3.19752 5.8981,-4.81246 10.1875,-4.8125 z m -330.593754,0 c 4.2895,4e-5 7.68405,1.61498 10.21875,4.8125 2.5151,3.19761 3.78125,7.54476 3.78125,13.0625 0,5.49828 -1.26615,9.83369 -3.78125,13.03125 -2.5347,3.19757 -5.92925,4.8125 -10.21875,4.8125 -4.2893,0 -7.6917,-1.61493 -10.1875,-4.8125 -2.515,-3.19756 -3.78125,-7.53297 -3.78125,-13.03125 0,-5.51774 1.26625,-9.86489 3.78125,-13.0625 2.4958,-3.19752 5.8982,-4.81246 10.1875,-4.8125 z m 777.781254,0.875 0,16.40625 -7.40625,0 c -2.74912,2e-5 -4.87368,-0.70167 -6.375,-2.125 -1.50127,-1.42329 -2.24997,-3.46158 -2.25,-6.09375 3e-5,-2.61262 0.74873,-4.63916 2.25,-6.0625 1.50132,-1.42327 3.62588,-2.12497 6.375,-2.125 l 7.40625,0 z m -69.625,0.96875 8,21.71875 -16.0625,0 8.0625,-21.71875 z m -315.9375,102.25 c -6.1222,4e-5 -11.022,2.0736 -14.6875,6.1875 -3.6655,4.09449 -5.5,9.5667 -5.5,16.46875 0,6.88259 1.8345,12.38607 5.5,16.5 3.6655,4.09446 8.5653,6.15625 14.6875,6.15625 6.1417,0 11.065,-2.06179 14.75,-6.15625 3.6655,-4.09443 5.5,-9.59791 5.5,-16.5 0,-6.90205 -1.8345,-12.37426 -5.5,-16.46875 -3.685,-4.1139 -8.6083,-6.18746 -14.75,-6.1875 z m -44.875,0.40625 -5.9375,0 0,26.53125 c 0,4.67938 -0.8663,8.02704 -2.5625,10.09375 -1.6963,2.04724 -4.448,3.09375 -8.25,3.09375 -3.7825,0 -6.52245,-1.04651 -8.21875,-3.09375 -1.6962,-2.06671 -2.53125,-5.41437 -2.53125,-10.09375 l 0,-26.53125 -5.9375,0 0,27.25 c 0,5.69325 1.423,10.00115 4.25,12.90625 2.8077,2.90512 6.9392,4.34375 12.4375,4.34375 5.5177,0 9.70415,-1.43863 12.53125,-4.34375 2.8076,-2.9051 4.21875,-7.213 4.21875,-12.90625 l 0,-27.25 z m 440.71875,0.40625 -36.9375,0 0,4.96875 15.5,0 0,38.71875 5.9375,0 0,-38.71875 15.5,0 0,-4.96875 z m -63.28125,0 -5.90625,0 0,17.90625 -21.46875,0 0,-17.90625 -5.90625,0 0,43.6875 5.90625,0 0,-20.8125 21.46875,0 0,20.8125 5.90625,0 0,-43.6875 z m -62.375,0 -13.3125,0 c -4.9913,6e-5 -8.7308,1.03881 -11.1875,3.125 -2.4567,2.08625 -3.6875,5.25735 -3.6875,9.46875 0,2.74917 0.6507,5.03053 1.9375,6.84375 1.2674,1.81329 3.1253,3.04812 5.5625,3.75 -1.2673,0.42896 -2.4982,1.34621 -3.6875,2.75 -1.2088,1.40383 -2.4161,3.35585 -3.625,5.8125 l -6,11.9375 6.34375,0 5.59375,-11.21875 c 1.4428,-2.9246 2.85395,-4.85712 4.21875,-5.8125 1.3454,-0.95536 3.19165,-1.43749 5.53125,-1.4375 l 6.40625,0 0,18.46875 5.90625,0 0,-43.6875 z m -64.125,0 -27.59375,0 0,4.96875 21.6875,0 0,12.9375 -20.78125,0 0,4.96875 20.78125,0 0,15.8125 -22.21875,0 0,5 28.125,0 0,-43.6875 z m -64.28125,0 -27.625,0 0,4.96875 21.71875,0 0,12.9375 -20.8125,0 0,4.96875 20.8125,0 0,15.8125 -22.25,0 0,5 28.15625,0 0,-43.6875 z m -67.5625,0 -25.09375,0 0,4.96875 19.1875,0 0,12.875 -17.3125,0 0,4.96875 17.3125,0 0,20.875 5.90625,0 0,-43.6875 z m -182.90625,0 -13.34375,0 c -4.9913,6e-5 -8.69955,1.03881 -11.15625,3.125 -2.4566,2.08625 -3.6874,5.25735 -3.6875,9.46875 10e-5,2.74917 0.6507,5.03053 1.9375,6.84375 1.2673,1.81329 3.1254,3.04812 5.5625,3.75 -1.2674,0.42896 -2.4981,1.34621 -3.6875,2.75 -1.2088,1.40383 -2.4161,3.35585 -3.625,5.8125 l -6,11.9375 6.34375,0 5.59375,-11.21875 c 1.4428,-2.9246 2.8227,-4.85712 4.1875,-5.8125 1.3453,-0.95536 3.19165,-1.43749 5.53125,-1.4375 l 6.4375,0 0,18.46875 5.90625,0 0,-43.6875 z m -62.40625,0 -25.09375,0 0,4.96875 19.1875,0 0,12.875 -17.3125,0 0,4.96875 17.3125,0 0,20.875 5.90625,0 0,-43.6875 z m -69.46875,0 -5.90625,0 0,43.6875 5.90625,0 0,-43.6875 z m -56.4375,0 -6.15625,0 -13.84375,36.78125 -13.84375,-36.78125 -6.15625,0 16.65625,43.6875 6.6875,0 16.65625,-43.6875 z m -81.125004,0 -27.625,0 0,4.96875 21.71875,0 0,12.9375 -20.8125,0 0,4.96875 20.8125,0 0,15.8125 -22.21875,0 0,5 28.125,0 0,-43.6875 z m 378.125004,4 c 4.2894,4e-5 7.7154,1.58373 10.25,4.78125 2.5152,3.19761 3.78125,7.54476 3.78125,13.0625 0,5.49828 -1.26605,9.86494 -3.78125,13.0625 -2.5346,3.19757 -5.9606,4.78125 -10.25,4.78125 -4.2894,0 -7.66055,-1.58368 -10.15625,-4.78125 -2.5152,-3.19756 -3.78115,-7.56422 -3.78125,-13.0625 10e-5,-5.51774 1.26605,-9.86489 3.78125,-13.0625 2.4957,-3.19752 5.86685,-4.78121 10.15625,-4.78125 z m 264.28125,0.875 0,15.5 -7.40625,0 c -2.8466,4e-5 -4.9946,-0.6624 -6.4375,-1.96875 -1.4622,-1.3258 -2.1875,-3.25832 -2.1875,-5.8125 0,-2.55412 0.7253,-4.49439 2.1875,-5.78125 1.4429,-1.30629 3.5909,-1.93747 6.4375,-1.9375 l 7.40625,0 z m -378.875,0 0,15.5 -7.4375,0 c -2.8465,4e-5 -4.96345,-0.6624 -6.40625,-1.96875 -1.4623,-1.3258 -2.21875,-3.25832 -2.21875,-5.8125 0,-2.55412 0.75645,-4.49439 2.21875,-5.78125 1.4428,-1.30629 3.55975,-1.93747 6.40625,-1.9375 l 7.4375,0 z m 492.03125,103.21875 c -2.0472,4e-5 -4.15601,0.16085 -6.28125,0.53125 -2.12519,0.3705 -4.27727,0.94664 -6.5,1.6875 l 0,5.75 c 2.24223,-1.07232 4.35504,-1.87978 6.34375,-2.40625 1.98876,-0.52638 3.89777,-0.78121 5.75,-0.78125 3.21708,4e-5 5.714,0.62721 7.46875,1.875 1.73527,1.24787 2.59376,3.01184 2.59375,5.3125 10e-6,1.93027 -0.56839,3.41192 -1.71875,4.40625 -1.16983,0.97491 -3.38841,1.77061 -6.625,2.375 l -3.5625,0.71875 c -4.40639,0.83842 -7.63249,2.3123 -9.71875,4.4375 -2.10568,2.10574 -3.15622,4.95149 -3.15625,8.5 3e-5,4.23094 1.40341,7.4413 4.25,9.625 2.82715,2.18371 6.99001,3.25 12.46875,3.25 2.06674,0 4.25408,-0.21957 6.59375,-0.6875 2.32019,-0.46794 4.72309,-1.17737 7.21875,-2.09375 l 0,-6.0625 c -2.39817,1.34532 -4.73055,2.34884 -7.03125,3.03125 -2.30068,0.68241 -4.55853,1.03125 -6.78125,1.03125 -3.37303,0 -5.97972,-0.67417 -7.8125,-2 -1.83273,-1.32581 -2.74996,-3.19957 -2.75,-5.65625 4e-5,-2.1447 0.6742,-3.8224 2,-5.03125 1.30635,-1.20882 3.43492,-2.11431 6.4375,-2.71875 l 3.625,-0.71875 c 4.40642,-0.87735 7.59327,-2.25322 9.5625,-4.125 1.96924,-1.87171 2.93751,-4.47842 2.9375,-7.8125 10e-6,-3.86044 -1.35236,-6.90226 -4.0625,-9.125 -2.72962,-2.22265 -6.47313,-3.31246 -11.25,-3.3125 z m -185.40625,0 c -2.0472,4e-5 -4.1247,0.16085 -6.25,0.53125 -2.1251,0.3705 -4.30855,0.94664 -6.53125,1.6875 l 0,5.75 c 2.2422,-1.07232 4.3863,-1.87978 6.375,-2.40625 1.9887,-0.52638 3.8977,-0.78121 5.75,-0.78125 3.217,4e-5 5.71395,0.62721 7.46875,1.875 1.7353,1.24787 2.59375,3.01184 2.59375,5.3125 0,1.93027 -0.56845,3.41192 -1.71875,4.40625 -1.1698,0.97491 -3.3885,1.77061 -6.625,2.375 l -3.5625,0.71875 c -4.4063,0.83842 -7.6638,2.3123 -9.75,4.4375 -2.1057,2.10574 -3.15615,4.95149 -3.15625,8.5 10e-5,4.23094 1.43465,7.4413 4.28125,9.625 2.8271,2.18371 6.98995,3.25 12.46875,3.25 2.0667,0 4.25405,-0.21957 6.59375,-0.6875 2.3202,-0.46794 4.72305,-1.17737 7.21875,-2.09375 l 0,-6.0625 c -2.3982,1.34532 -4.73055,2.34884 -7.03125,3.03125 -2.3007,0.68241 -4.55855,1.03125 -6.78125,1.03125 -3.373,0 -5.9797,-0.67417 -7.8125,-2 -1.8327,-1.32581 -2.7499,-3.19957 -2.75,-5.65625 10e-5,-2.1447 0.64295,-3.8224 1.96875,-5.03125 1.3063,-1.20882 3.46615,-2.11431 6.46875,-2.71875 l 3.59375,-0.71875 c 4.4065,-0.87735 7.5933,-2.25322 9.5625,-4.125 1.9692,-1.87171 2.96875,-4.47842 2.96875,-7.8125 0,-3.86044 -1.3524,-6.90226 -4.0625,-9.125 -2.7297,-2.22265 -6.50435,-3.31246 -11.28125,-3.3125 z m -438.28125,0 c -2.8466,4e-5 -5.53955,0.32939 -8.09375,1.03125 -2.5736,0.70195 -4.9607,1.76022 -7.125,3.125 l 0,6.28125 c 2.1838,-1.85222 4.51215,-3.25159 6.96875,-4.1875 2.4567,-0.93584 5.0399,-1.40622 7.75,-1.40625 5.3423,3e-5 9.3719,1.48569 12.0625,4.46875 2.6711,2.98313 4,7.43607 4,13.34375 0,5.88822 -1.3289,10.3294 -4,13.3125 -2.6906,2.9831 -6.7202,4.46875 -12.0625,4.46875 -2.0862,0 -3.95595,-0.18029 -5.59375,-0.53125 -1.6377,-0.37044 -3.09985,-0.92709 -4.40625,-1.6875 l 0,-11.71875 9.65625,0 0,-4.875 -15.5,0 0,18.75 c 2.2813,1.61828 4.78215,2.84912 7.53125,3.6875 2.7492,0.8189 5.6929,1.21875 8.8125,1.21875 6.8241,0 12.17085,-1.99129 16.03125,-5.96875 3.841,-3.99696 5.75,-9.53969 5.75,-16.65625 0,-7.13602 -1.909,-12.67875 -5.75,-16.65625 -3.8604,-3.99693 -9.20715,-5.99996 -16.03125,-6 z m 565.125,0.8125 -5.90625,0 0,43.65625 5.90625,0 0,-43.65625 z m -48.96875,0 -6.34375,0 -10.875,16.21875 -10.90625,-16.21875 -6.34375,0 14.03125,20.96875 -14.96875,22.6875 6.34375,0 12.28125,-18.5625 12.375,18.5625 6.375,0 -15.59375,-23.3125 13.625,-20.34375 z m -128.125,0 -27.625,0 0,4.96875 21.71875,0 0,12.9375 -20.8125,0 0,4.96875 20.8125,0 0,15.8125 -22.25,0 0,4.96875 28.15625,0 0,-43.65625 z m -60.09375,0 -6.1875,0 -13.84375,36.75 -13.84375,-36.75 -6.15625,0 16.65625,43.65625 6.6875,0 16.6875,-43.65625 z m -67.59375,0 -27.59375,0 0,4.96875 21.6875,0 0,12.9375 -20.78125,0 0,4.96875 20.78125,0 0,15.8125 -22.21875,0 0,4.96875 28.125,0 0,-43.65625 z m -59.15625,0 -7.96875,0 -19.34375,36.53125 0,-36.53125 -5.75,0 0,43.65625 7.96875,0 19.34375,-36.53125 0,36.53125 5.75,0 0,-43.65625 z m -66.5625,0 -27.59375,0 0,4.96875 21.6875,0 0,12.9375 -20.78125,0 0,4.96875 20.78125,0 0,15.8125 -22.21875,0 0,4.96875 28.125,0 0,-43.65625 z m -69.0625,0 -5.90625,0 0,43.65625 5.90625,0 0,-43.65625 z m -119.65625,0 -5.90625,0 0,17.90625 -21.46875,0 0,-17.90625 -5.90625,0 0,43.65625 5.90625,0 0,-20.78125 21.46875,0 0,20.78125 5.90625,0 0,-43.65625 z m -73.375004,0 -36.9375,0 0,4.96875 15.5,0 0,38.6875 5.9375,0 0,-38.6875 15.5,0 0,-4.96875 z m 767.625004,108.875 -7.9375,0 -19.375,36.53125 0,-36.53125 -5.71875,0 0,43.6875 7.9375,0 19.375,-36.53125 0,36.53125 5.71875,0 0,-43.6875 z m -75.03125,0 -5.90625,0 0,43.6875 5.90625,0 0,-43.6875 z m -49.15625,0 -7.96875,0 -19.34375,36.53125 0,-36.53125 -5.71875,0 0,43.6875 7.9375,0 19.375,-36.53125 0,36.53125 5.71875,0 0,-43.6875 z m -63.65625,0 -27.59375,0 0,4.96875 21.6875,0 0,12.9375 -20.78125,0 0,4.96875 20.78125,0 0,15.84375 -22.21875,0 0,4.96875 28.125,0 0,-43.6875 z m -59.875,0 -36.9375,0 0,4.96875 15.5,0 0,38.71875 5.9375,0 0,-38.71875 15.5,0 0,-4.96875 z m -70.4375,0 -27.625,0 0,4.96875 21.71875,0 0,12.9375 -20.8125,0 0,4.96875 20.8125,0 0,15.84375 -22.25,0 0,4.96875 28.15625,0 0,-43.6875 z m -59.1875,0 -7.96875,0 -19.34375,36.53125 0,-36.53125 -5.75,0 0,43.6875 7.96875,0 19.375,-36.53125 0,36.53125 5.71875,0 0,-43.6875 z m -64.09375,0 -27.59375,0 0,4.96875 21.6875,0 0,12.9375 -20.78125,0 0,4.96875 20.78125,0 0,15.84375 -22.21875,0 0,4.96875 28.125,0 0,-43.6875 z m -64.5625,0 -5.90625,0 0,38.71875 -21.28125,0 0,4.96875 27.1875,0 0,-43.6875 z m -57.46875,0 -27.625,0 0,4.96875 21.71875,0 0,12.9375 -20.8125,0 0,4.96875 20.8125,0 0,15.84375 -22.25,0 0,4.96875 28.15625,0 0,-43.6875 z m -53.96875,0 -6.15625,0 -13.84375,36.78125 -13.875,-36.78125 -6.125,0 16.625,43.6875 6.71875,0 16.65625,-43.6875 z m -79.40625,0 -27.59375,0 0,4.96875 21.6875,0 0,12.9375 -20.78125,0 0,4.96875 20.78125,0 0,15.84375 -22.21875,0 0,4.96875 28.125,0 0,-43.6875 z m -72.750004,0 -7.9375,0 -19.375,36.53125 0,-36.53125 -5.71875,0 0,43.6875 7.9375,0 19.375,-36.53125 0,36.53125 5.71875,0 0,-43.6875 z M 386.37054,757.10714 c -6.1221,0 -11.0219,2.04235 -14.6875,6.15625 -3.6655,4.0945 -5.4999,9.598 -5.5,16.5 10e-5,6.8825 1.8345,12.3861 5.5,16.5 3.6656,4.0944 8.5654,6.15625 14.6875,6.15625 6.1417,0 11.065,-2.06185 14.75,-6.15625 3.6655,-4.0944 5.5,-9.5979 5.5,-16.5 0,-6.9021 -1.8345,-12.4055 -5.5,-16.5 -3.685,-4.1139 -8.6083,-6.15625 -14.75,-6.15625 z m -67.78125,0 c -2.6126,0 -5.0743,0.3606 -7.375,1.0625 -2.3202,0.6824 -4.4722,1.70935 -6.5,3.09375 l 0,6.21875 c 1.9888,-1.8523 4.1133,-3.23975 6.375,-4.15625 2.2422,-0.9162 4.62155,-1.375 7.15625,-1.375 4.9913,0 8.81715,1.53265 11.46875,4.59375 2.6517,3.0416 3.96875,7.44745 3.96875,13.21875 0,5.7518 -1.31705,10.15775 -3.96875,13.21875 -2.6516,3.0416 -6.47745,4.5625 -11.46875,4.5625 -2.5347,0 -4.91405,-0.4586 -7.15625,-1.375 -2.2617,-0.9164 -4.3862,-2.30405 -6.375,-4.15625 l 0,6.1875 c 2.0668,1.404 4.2423,2.45435 6.5625,3.15625 2.3007,0.7019 4.7389,1.0625 7.3125,1.0625 6.6097,0 11.823,-2.0265 15.625,-6.0625 3.802,-4.0554 5.6875,-9.59425 5.6875,-16.59375 0,-7.0191 -1.8855,-12.5265 -5.6875,-16.5625 -3.802,-4.0553 -9.0153,-6.09375 -15.625,-6.09375 z m -114.15625,0 c -6.1221,0 -11.022,2.04235 -14.6875,6.15625 -3.6655,4.0945 -5.4999,9.598 -5.5,16.5 1e-4,6.8825 1.8345,12.3861 5.5,16.5 3.6655,4.0944 8.5654,6.15625 14.6875,6.15625 6.1417,0 11.065,-2.06185 14.75,-6.15625 3.6655,-4.0944 5.5,-9.5979 5.5,-16.5 0,-6.9021 -1.8345,-12.4055 -5.5,-16.5 -3.685,-4.1139 -8.6083,-6.15625 -14.75,-6.15625 z m -77.15625,0 c -2.6127,0 -5.04305,0.3606 -7.34375,1.0625 -2.3202,0.6824 -4.50345,1.70935 -6.53125,3.09375 l 0,6.21875 c 1.9889,-1.8523 4.1133,-3.23975 6.375,-4.15625 2.2423,-0.9162 4.62155,-1.375 7.15625,-1.375 4.9914,0 8.81715,1.53265 11.46875,4.59375 2.6516,3.0416 3.96885,7.44745 3.96875,13.21875 1e-4,5.7518 -1.31715,10.15775 -3.96875,13.21875 -2.6516,3.0416 -6.47735,4.5625 -11.46875,4.5625 -2.5347,0 -4.91395,-0.4586 -7.15625,-1.375 -2.2617,-0.9164 -4.3861,-2.30405 -6.375,-4.15625 l 0,6.1875 c 2.0669,1.404 4.2422,2.45435 6.5625,3.15625 2.3007,0.7019 4.7388,1.0625 7.3125,1.0625 6.6096,0 11.823,-2.0265 15.625,-6.0625 3.802,-4.0554 5.71875,-9.59425 5.71875,-16.59375 0,-7.0191 -1.91675,-12.5265 -5.71875,-16.5625 -3.802,-4.0553 -9.0154,-6.09375 -15.625,-6.09375 z m 716.5625,0.8125 -36.9375,0 0,4.96875 15.5,0 0,38.6875 5.9375,0 0,-38.6875 15.5,0 0,-4.96875 z m -52.28125,0 -5.96875,0 -9.1875,36.90625 -9.15625,-36.90625 -6.625,0 -9.1875,36.90625 -9.15625,-36.90625 -6,0 10.96875,43.65625 7.4375,0 9.21875,-37.90625 9.28125,37.90625 7.4375,0 10.9375,-43.65625 z m -76.3125,0 -27.59375,0 0,4.96875 21.6875,0 0,12.9375 -20.78125,0 0,4.96875 20.78125,0 0,15.8125 -22.21875,0 0,4.96875 28.125,0 0,-43.65625 z m -61.65625,0 -5.90625,0 0,38.6875 -21.28125,0 0,4.96875 27.1875,0 0,-43.65625 z m -57.875,0 -6.1875,0 -13.8125,36.78125 -13.875,-36.78125 -6.15625,0 16.65625,43.65625 6.6875,0 16.6875,-43.65625 z m -71.96875,0 -27.625,0 0,4.96875 21.71875,0 0,12.9375 -20.8125,0 0,4.96875 20.8125,0 0,15.8125 -22.25,0 0,4.96875 28.15625,0 0,-43.65625 z m -62.125,0 -5.90625,0 0,38.6875 -21.28125,0 0,4.96875 27.1875,0 0,-43.65625 z m -183.6875,0 -5.90625,0 0,38.6875 -21.25,0 0,4.96875 27.15625,0 0,-43.65625 z m -204.812504,0 -5.90625,0 0,18.46875 -19.59375,-18.46875 -7.59375,0 21.65625,20.34375 -23.21875,23.3125 7.78125,0 20.96875,-21.03125 0,21.03125 5.90625,0 0,-43.65625 z m 313.250004,3.96875 c 4.2895,0 7.7153,1.615 10.25,4.8125 2.5151,3.1976 3.75,7.5448 3.75,13.0625 0,5.4982 -1.2349,9.865 -3.75,13.0625 -2.5347,3.1975 -5.9605,4.78125 -10.25,4.78125 -4.2893,0 -7.6918,-1.58375 -10.1875,-4.78125 -2.5151,-3.1975 -3.75,-7.5643 -3.75,-13.0625 0,-5.5178 1.2349,-9.8648 3.75,-13.0625 2.4957,-3.1974 5.8982,-4.8125 10.1875,-4.8125 z m -181.9375,0 c 4.2895,0 7.7153,1.615 10.25,4.8125 2.5151,3.1976 3.75,7.5448 3.75,13.0625 0,5.4982 -1.2349,9.865 -3.75,13.0625 -2.5347,3.1975 -5.9605,4.78125 -10.25,4.78125 -4.2894,0 -7.6918,-1.58375 -10.1875,-4.78125 -2.5151,-3.1975 -3.7499,-7.5643 -3.75,-13.0625 1e-4,-5.5178 1.2349,-9.8648 3.75,-13.0625 2.4957,-3.1974 5.8981,-4.8125 10.1875,-4.8125 z"
       id="rect3438"
       inkscape:connector-curvature="0" />
  </g>
</svg>
